<svg width="860" height="220" viewBox="0 0 860 220" xmlns="http://www.w3.org/2000/svg">
  <rect width="860" height="220" fill="#0d1117"/>
  <line x1="0" y1="40" x2="860" y2="40" stroke="#ffffff" stroke-width="0.3" stroke-opacity="0.08"/>
  <line x1="0" y1="180" x2="860" y2="180" stroke="#ffffff" stroke-width="0.3" stroke-opacity="0.08"/>
  <line x1="40" y1="0" x2="40" y2="220" stroke="#ffffff" stroke-width="0.3" stroke-opacity="0.08"/>
  <line x1="820" y1="0" x2="820" y2="220" stroke="#ffffff" stroke-width="0.3" stroke-opacity="0.08"/>
  <line x1="0" y1="110" x2="320" y2="110" stroke="#ffffff" stroke-width="0.3" stroke-opacity="0.12"/>
  <line x1="590" y1="110" x2="860" y2="110" stroke="#ffffff" stroke-width="0.3" stroke-opacity="0.12"/>
  <rect x="40" y="40" width="1" height="140" fill="#ffffff" fill-opacity="0.25"/>
  <rect x="819" y="40" width="1" height="140" fill="#ffffff" fill-opacity="0.25"/>
  <rect x="40" y="39" width="140" height="1" fill="#ffffff" fill-opacity="0.25"/>
  <rect x="40" y="180" width="140" height="1" fill="#ffffff" fill-opacity="0.25"/>
  <rect x="680" y="39" width="140" height="1" fill="#ffffff" fill-opacity="0.25"/>
  <rect x="680" y="180" width="140" height="1" fill="#ffffff" fill-opacity="0.25"/>
  <circle cx="40" cy="40" r="3" fill="none" stroke="#ffffff" stroke-width="0.8" stroke-opacity="0.5"/>
  <circle cx="820" cy="40" r="3" fill="none" stroke="#ffffff" stroke-width="0.8" stroke-opacity="0.5"/>
  <circle cx="40" cy="180" r="3" fill="none" stroke="#ffffff" stroke-width="0.8" stroke-opacity="0.5"/>
  <circle cx="820" cy="180" r="3" fill="none" stroke="#ffffff" stroke-width="0.8" stroke-opacity="0.5"/>
  <text x="430" y="108" font-family="Georgia, serif" font-size="62" font-weight="700" fill="#ffffff" text-anchor="middle" letter-spacing="-1">Rikesh</text>
  <text x="430" y="163" font-family="Georgia, serif" font-size="62" font-weight="400" font-style="italic" fill="#ffffff" text-anchor="middle" letter-spacing="-1" fill-opacity="0.85">Gurung</text>
  <text x="58" y="62" font-family="monospace" font-size="9.5" fill="#ffffff" fill-opacity="0.35" letter-spacing="3">001</text>
  <text x="58" y="172" font-family="monospace" font-size="9.5" fill="#ffffff" fill-opacity="0.35" letter-spacing="2">Requiem-0</text>
  <text x="802" y="62" font-family="monospace" font-size="9.5" fill="#ffffff" fill-opacity="0.35" letter-spacing="2" text-anchor="end">flutter dev</text>
  <text x="802" y="172" font-family="monospace" font-size="9.5" fill="#ffffff" fill-opacity="0.35" letter-spacing="2" text-anchor="end">KTM · NP</text>
  <text x="430" y="200" font-family="monospace" font-size="10" fill="#ffffff" fill-opacity="0.3" text-anchor="middle" letter-spacing="4">flutter · dart · film · archive</text>
</svg>
